<svg width="40" height="40" viewBox="0 0 40 40" fill="none" xmlns="http://www.w3.org/2000/svg">
<path d="M20 40C8.95429 40 0 31.0456 0 20C0 8.9543 8.95429 0 20 0C31.0456 0 40 8.9543 40 20C40 31.0456 31.0456 40 20 40ZM17.828 19.1368C18.3098 17.4546 19.9778 16.0532 21.8086 15.8404C22.182 17.2278 22.5832 18.5868 22.8986 19.9652C23.004 20.4254 22.9718 20.9552 22.8614 21.4196C22.437 23.2038 20.3668 23.9042 18.9066 22.7898C17.8444 21.9792 17.423 20.5514 17.828 19.1368ZM25.4626 18.7414C25.2122 17.813 24.95 16.8876 24.6768 15.9019C25.6756 16.162 26.491 16.6216 27.186 17.297C29.6992 19.74 29.9566 23.8976 27.774 26.7608C25.5032 29.7396 21.4642 31.0282 17.7172 29.9696C13.114 28.669 10.1022 24.0654 10.8352 19.3384C11.3838 15.8015 13.3768 13.3303 16.6354 11.8716C17.4494 11.5073 17.795 10.7522 17.476 10.0126C17.1616 9.28344 16.3948 9.00484 15.589 9.32698C10.1457 11.503 6.94613 17.5948 8.24959 23.3006C9.67387 29.5358 15.2373 33.625 21.597 33.0178C25.0616 32.687 27.9252 31.1218 30.0292 28.3248C33.0416 24.3198 32.6242 18.7588 29.1048 15.3265C27.7714 14.0262 26.1612 13.29 24.3256 13.0194C24.158 12.9947 23.8906 12.9157 23.8608 12.8085C23.6854 12.1818 23.4992 11.5447 23.4478 10.9007C23.3906 10.1855 24.0266 9.61876 24.7486 9.60976C25.2544 9.60346 25.6154 9.87158 25.9548 10.2094C26.559 10.8103 27.3628 10.8535 27.9304 10.3347C28.5082 9.80644 28.5228 8.97824 27.966 8.31784C26.8336 6.97492 24.7936 6.53558 23.107 7.27144C21.4114 8.01132 20.464 9.64512 20.7072 11.4583C20.7824 12.0199 20.9258 12.5723 21.0406 13.1426C20.8584 13.1928 20.6884 13.239 20.519 13.2863C18.8076 13.7645 17.3978 14.6935 16.3248 16.115C14.4819 18.5556 14.4512 21.7692 16.2418 24.0088C18.7904 27.1964 23.7354 26.5764 25.2886 22.8714C25.8554 21.519 25.8382 20.1352 25.4626 18.7414Z" fill="#1C1C1C"/>
</svg>
